<svg width="40" height="24" viewBox="0 0 40 24" fill="none" xmlns="http://www.w3.org/2000/svg">
<g clip-path="url(#clip0_2_30)" filter="url(#filter0_dd_2_30)">
<path fill-rule="evenodd" clip-rule="evenodd" d="M32.8992 0C34.6117 0 36 1.39911 36 3.125V12.875C36 14.6009 34.6117 16 32.8992 16H7.10078C5.38826 16 4 14.6009 4 12.875V3.125C4 1.39911 5.38826 0 7.10078 0H32.8992ZM16.71 2.911C16.0313 2.911 15.428 3.02737 14.9001 3.26012C14.3722 3.49287 13.9622 3.82775 13.67 4.26475C13.3777 4.70175 13.2316 5.21475 13.2316 5.80375C13.2316 6.43075 13.3754 6.93188 13.6629 7.30713C13.9504 7.68237 14.2944 7.96263 14.6951 8.14787C15.0957 8.33313 15.6165 8.52075 16.2575 8.71075C16.7288 8.84375 17.0988 8.96488 17.3674 9.07413C17.6361 9.18338 17.86 9.333 18.0391 9.523C18.2182 9.713 18.3077 9.95525 18.3077 10.2498C18.3077 10.6108 18.1758 10.9029 17.9118 11.1261C17.6479 11.3494 17.285 11.461 16.8231 11.461C16.3706 11.461 16.0148 11.3422 15.7555 11.1047C15.5067 10.8767 15.3642 10.57 15.3282 10.1844L15.3243 10.1357H13.2033L13.205 10.2006C13.2248 10.7813 13.3892 11.2869 13.6982 11.7175C14.0187 12.164 14.4547 12.506 15.0061 12.7435C15.5576 12.981 16.1774 13.0997 16.8655 13.0997C17.5913 13.0997 18.2182 12.9644 18.746 12.6936C19.2739 12.4229 19.6745 12.0595 19.9479 11.6035C20.2213 11.1475 20.358 10.6535 20.358 10.1215C20.358 9.504 20.2118 9.00525 19.9196 8.62525C19.6274 8.24525 19.2786 7.96025 18.8733 7.77025C18.468 7.58025 17.9448 7.39025 17.3038 7.20025C16.8325 7.05775 16.4672 6.93188 16.208 6.82263C15.9488 6.71338 15.732 6.57087 15.5576 6.39512C15.3832 6.21938 15.296 5.9985 15.296 5.7325C15.296 5.3525 15.4115 5.06275 15.6424 4.86325C15.8734 4.66375 16.1821 4.564 16.5686 4.564C17.0116 4.564 17.3674 4.67563 17.6361 4.89888C17.8936 5.11282 18.0363 5.3813 18.0643 5.70431L18.0673 5.74675H20.2448L20.2399 5.68617C20.1627 4.82222 19.8133 4.14654 19.1914 3.65913C18.5552 3.16038 17.728 2.911 16.71 2.911ZM27.3942 2.911C26.4704 2.911 25.6221 3.1295 24.8491 3.5665C24.0762 4.0035 23.4634 4.60913 23.011 5.38338C22.5585 6.15763 22.3323 7.02925 22.3323 7.99825C22.3323 8.97675 22.5585 9.85312 23.011 10.6274C23.4634 11.4016 24.0762 12.0072 24.8491 12.4443C25.6221 12.8813 26.4704 13.0997 27.3942 13.0997C28.318 13.0997 29.1664 12.8813 29.9393 12.4443C30.7123 12.0072 31.3227 11.4016 31.7704 10.6274C32.2182 9.85312 32.442 8.97675 32.442 7.99825C32.442 7.02925 32.2182 6.15763 31.7704 5.38338C31.3227 4.60913 30.7147 4.0035 29.9464 3.5665C29.1782 3.1295 28.3274 2.911 27.3942 2.911ZM10.7624 3.0535H8.78288V13H10.7624V3.0535ZM27.3942 4.7065C27.9881 4.7065 28.5113 4.8395 28.9637 5.1055C29.4162 5.3715 29.7697 5.75387 30.0242 6.25262C30.2787 6.75138 30.406 7.33325 30.406 7.99825C30.406 8.66325 30.2787 9.2475 30.0242 9.751C29.7697 10.2545 29.4162 10.6416 28.9637 10.9124C28.5113 11.1831 27.9881 11.3185 27.3942 11.3185C26.8004 11.3185 26.2749 11.1831 25.8177 10.9124C25.3605 10.6416 25.0047 10.2545 24.7501 9.751C24.4956 9.2475 24.3684 8.66325 24.3684 7.99825C24.3684 7.33325 24.4956 6.75138 24.7501 6.25262C25.0047 5.75387 25.3605 5.3715 25.8177 5.1055C26.2749 4.8395 26.8004 4.7065 27.3942 4.7065Z" fill="white"/>
</g>
<defs>
<filter id="filter0_dd_2_30" x="0" y="0" width="40" height="24" filterUnits="userSpaceOnUse" color-interpolation-filters="sRGB">
<feFlood flood-opacity="0" result="BackgroundImageFix"/>
<feColorMatrix in="SourceAlpha" type="matrix" values="0 0 0 0 0 0 0 0 0 0 0 0 0 0 0 0 0 0 127 0" result="hardAlpha"/>
<feOffset dy="4"/>
<feGaussianBlur stdDeviation="2"/>
<feComposite in2="hardAlpha" operator="out"/>
<feColorMatrix type="matrix" values="0 0 0 0 0 0 0 0 0 0 0 0 0 0 0 0 0 0 0.25 0"/>
<feBlend mode="normal" in2="BackgroundImageFix" result="effect1_dropShadow_2_30"/>
<feColorMatrix in="SourceAlpha" type="matrix" values="0 0 0 0 0 0 0 0 0 0 0 0 0 0 0 0 0 0 127 0" result="hardAlpha"/>
<feOffset dy="4"/>
<feGaussianBlur stdDeviation="2"/>
<feComposite in2="hardAlpha" operator="out"/>
<feColorMatrix type="matrix" values="0 0 0 0 0 0 0 0 0 0 0 0 0 0 0 0 0 0 0.25 0"/>
<feBlend mode="normal" in2="effect1_dropShadow_2_30" result="effect2_dropShadow_2_30"/>
<feBlend mode="normal" in="SourceGraphic" in2="effect2_dropShadow_2_30" result="shape"/>
</filter>
<clipPath id="clip0_2_30">
<rect width="32" height="16" fill="white" transform="translate(4)"/>
</clipPath>
</defs>
</svg>
